# xmcd
#
# Track frame offsets:
#	150
#	16717
#	29787
#
# Disc length: 618 seconds
#
# Revision: 0
# Processed by: cddbd v1.5.2PL0 Copyright (c) Steve Scherf et al.
# Submitted via: audiograbber 1.83.01
#
DISCID=1b026803
DTITLE=Die Spessarter - Action auf der Alm
DYEAR=2000
DGENRE=Volksmusik
TTITLE0=Action auf der Alm
TTITLE1=Ois is isi
TTITLE2=Action auf der Alm (karaoke)
EXTD=<http://www.hit-radio24.de>
EXTT0=
EXTT1=
EXTT2=
PLAYORDER=
